<svg width="30" height="28" viewBox="0 0 30 28" fill="none" xmlns="http://www.w3.org/2000/svg">
<path d="M29.8576 1.08013C29.7669 0.875245 29.6324 0.6832 29.4547 0.516285L29.4468 0.508865C29.1078 0.194355 28.6408 0 28.1249 0H20.6249C19.5894 0 18.75 0.78351 18.75 1.75C18.75 2.71649 19.5894 3.5 20.6249 3.5H23.5983L17.4241 9.26256C16.692 9.94598 16.692 11.054 17.4241 11.7374C18.1563 12.4209 19.3436 12.4209 20.0758 11.7374L26.2499 5.97487V8.75C26.2499 9.71649 27.0894 10.5 28.1249 10.5C29.1605 10.5 29.9999 9.71649 29.9999 8.75V1.75C29.9999 1.51272 29.9493 1.28646 29.8576 1.08013Z" fill="#0055FF"/>
<path d="M0 1.75C0 0.78351 0.839474 0 1.875 0H5.91163C6.8282 0 7.61043 0.618467 7.76112 1.4623L9.14733 9.22507C9.28265 9.98289 8.8726 10.7344 8.13637 11.078L5.23361 12.4326C7.32667 17.287 11.4781 21.1617 16.6792 23.1152L18.1307 20.406C18.4987 19.7188 19.304 19.3361 20.1159 19.4625L28.4332 20.7562C29.3373 20.8969 30 21.627 30 22.4824V26.25C30 27.2165 29.1605 28 28.125 28H24.375C10.9131 28 0 17.8145 0 5.25V1.75Z" fill="#0055FF"/>
</svg>
