<svg width="13" height="12" viewBox="0 0 13 12" fill="none" xmlns="http://www.w3.org/2000/svg">
<path fill-rule="evenodd" clip-rule="evenodd" d="M6.5 12C9.81373 12 12.5 9.31373 12.5 6C12.5 2.68629 9.81373 0 6.5 0C3.18629 0 0.5 2.68629 0.5 6C0.5 9.31373 3.18629 12 6.5 12ZM7.25 3C7.25 2.58579 6.91423 2.25 6.5 2.25C6.08578 2.25 5.75 2.58579 5.75 3V6C5.75 6.1989 5.82902 6.3897 5.96967 6.53033L8.09098 8.65162C8.38385 8.94458 8.85875 8.94458 9.15162 8.65162C9.44458 8.35875 9.44458 7.88385 9.15162 7.59098L7.25 5.68934V3Z" fill="#111827"/>
</svg>
