<svg width="16" height="15" viewBox="0 0 16 15" fill="none" xmlns="http://www.w3.org/2000/svg">
<path d="M8 15C3.85775 15 0.5 11.6423 0.5 7.5C0.5 3.35775 3.85775 0 8 0C12.1423 0 15.5 3.35775 15.5 7.5C15.5 11.6423 12.1423 15 8 15ZM6.9665 4.81125C6.92136 4.78113 6.8689 4.76383 6.8147 4.76117C6.76051 4.75851 6.7066 4.7706 6.65873 4.79615C6.61086 4.8217 6.57082 4.85975 6.54287 4.90626C6.51492 4.95277 6.5001 5.00599 6.5 5.06025V9.93975C6.5001 9.99401 6.51492 10.0472 6.54287 10.0937C6.57082 10.1402 6.61086 10.1783 6.65873 10.2039C6.7066 10.2294 6.76051 10.2415 6.8147 10.2388C6.8689 10.2362 6.92136 10.2189 6.9665 10.1888L10.6258 7.74975C10.6669 7.72236 10.7006 7.68524 10.724 7.64166C10.7473 7.59809 10.7595 7.54943 10.7595 7.5C10.7595 7.45057 10.7473 7.40191 10.724 7.35834C10.7006 7.31476 10.6669 7.27764 10.6258 7.25025L6.9665 4.81125Z" fill="white"/>
</svg>
