<svg width="12" height="13" viewBox="0 0 12 13" fill="none" xmlns="http://www.w3.org/2000/svg">
<path d="M0.923077 0.433333V0C0.68942 0 0.5 0.19401 0.5 0.433333H0.923077ZM0.923077 11.7H0.5C0.5 11.9393 0.68942 12.1333 0.923077 12.1333V11.7ZM3.03846 0V13H3.88462V0H3.03846ZM0.923077 0.866667H9.38461V0H0.923077V0.866667ZM10.6538 2.16667V9.96667H11.5V2.16667H10.6538ZM9.38461 11.2667H0.923077V12.1333H9.38461V11.2667ZM1.34615 11.7V0.433333H0.5V11.7H1.34615ZM10.6538 9.96667C10.6538 10.6846 10.0856 11.2667 9.38461 11.2667V12.1333C10.5529 12.1333 11.5 11.1633 11.5 9.96667H10.6538ZM9.38461 0.866667C10.0856 0.866667 10.6538 1.44869 10.6538 2.16667H11.5C11.5 0.970051 10.5529 0 9.38461 0V0.866667ZM5.57692 4.33333H8.96154V3.46667H5.57692V4.33333Z" fill="#111827"/>
</svg>
