<svg width="49" height="49" viewBox="0 0 49 49" fill="none" xmlns="http://www.w3.org/2000/svg">
<path d="M30.5514 32.5948L42.6318 44.6755C43.2177 45.2611 44.1675 45.2611 44.7534 44.6755C45.339 44.0896 45.339 43.1398 44.7534 42.5539L5.75328 3.55409C5.1675 2.9683 4.21776 2.9683 3.63198 3.55409C3.04618 4.13987 3.04618 5.08961 3.63198 5.67539L13.3213 15.3648C11.8961 16.3696 10.7304 17.5155 9.78894 18.6636C8.45592 20.2891 7.57725 21.9095 7.03056 23.1241C6.75648 23.733 6.5637 24.2446 6.43761 24.6106C6.37452 24.7938 6.29621 25.0462 6.29621 25.0462L6.24324 25.2303C6.24324 25.2303 6.01557 26.722 7.30869 27.0646C8.109 27.2769 8.93016 26.7991 9.14301 25.9992L9.14595 25.9889L9.168 25.9138C9.18933 25.8432 9.22416 25.7326 9.27408 25.5876C9.37404 25.2974 9.53388 24.8716 9.7662 24.3554C10.2323 23.32 10.9814 21.9404 12.1087 20.5659C12.9835 19.4991 14.089 18.4296 15.4805 17.5239L20.2133 22.2568C18.099 23.5831 16.6933 25.9348 16.6933 28.6147C16.6933 32.7568 20.0512 36.1147 24.1933 36.1147C26.8734 36.1147 29.225 34.7089 30.5514 32.5948ZM19.1515 12.7103L21.7146 15.2735C22.4936 15.1703 23.3189 15.1147 24.1931 15.1147C30.3261 15.1147 34.0497 17.8492 36.2775 20.5659C37.4049 21.9404 38.154 23.32 38.6199 24.3554C38.8524 24.8716 39.0123 25.2974 39.1122 25.5876C39.162 25.7326 39.1968 25.8432 39.2181 25.9138L39.2403 25.9889L39.2433 25.9992L39.2442 26.0029C39.4581 26.8014 40.278 27.2767 41.0775 27.0646C41.8782 26.8523 42.3552 26.0311 42.1431 25.2303L42.1422 25.2268L42.1407 25.2222L42.1374 25.2097L42.1269 25.1718C42.1182 25.1409 42.1059 25.0987 42.09 25.0462C42.0582 24.941 42.0117 24.7938 41.9487 24.6106C41.8224 24.2446 41.6298 23.733 41.3556 23.1241C40.809 21.9095 39.9303 20.2891 38.5974 18.6636C35.9046 15.3802 31.3782 12.1147 24.1931 12.1147C22.3405 12.1147 20.6647 12.3318 19.1515 12.7103Z" fill="#212121"/>
</svg>
