<svg width="20" height="16" viewBox="0 0 20 16" fill="none" xmlns="http://www.w3.org/2000/svg">
<path d="M6 16C4.17526 16.0009 2.58119 14.7668 2.125 13.0001H0V11.0002H2.126C2.64564 8.98771 4.62012 7.70855 6.66928 8.05684C8.7184 8.40513 10.1594 10.2648 9.9849 12.3359C9.8103 14.4071 8.0786 15.9995 6 16ZM6 10.0002C4.9074 10.0013 4.01789 10.8791 4.00223 11.9714C3.98658 13.0639 4.85057 13.9668 5.94269 13.9992C7.03481 14.0316 7.95083 13.1816 8 12.0901V12.4901V12.0001C8 10.8956 7.10457 10.0002 6 10.0002ZM20 13.0001H11V11.0002H20V13.0001ZM11 8.00024C9.1756 8.00074 7.58209 6.76668 7.126 5.00034H0V3.0004H7.126C7.64564 0.987907 9.6201 -0.291254 11.6693 0.0570556C13.7184 0.405355 15.1594 2.26504 14.9849 4.3362C14.8103 6.40739 13.0786 7.99974 11 8.00024ZM11 2.00043C9.9074 2.00154 9.0179 2.87925 9.0022 3.97171C8.9866 5.06417 9.8506 5.96702 10.9427 5.99942C12.0348 6.0318 12.9508 5.18183 13 4.09036V4.49036V4.00037C13 2.89584 12.1046 2.00043 11 2.00043ZM20 5.00034H16V3.0004H20V5.00034Z" fill="#111827"/>
</svg>
