<svg width="23" height="23" viewBox="0 0 23 23" fill="none" xmlns="http://www.w3.org/2000/svg">
<path d="M15.607 7.04839C14.9345 2.90746 13.3483 0 11.5023 0C9.65638 0 8.07018 2.90746 7.39766 7.04839H15.607ZM7.04981 11.5C7.04981 12.5294 7.10546 13.5171 7.20286 14.4677H15.7971C15.8945 13.5171 15.9502 12.5294 15.9502 11.5C15.9502 10.4706 15.8945 9.48286 15.7971 8.53226H7.20286C7.10546 9.48286 7.04981 10.4706 7.04981 11.5ZM22.1095 7.04839C20.783 3.8998 18.0976 1.46532 14.7814 0.482258C15.9131 2.0496 16.6923 4.40988 17.1004 7.04839H22.1095ZM8.21859 0.482258C4.90704 1.46532 2.21698 3.8998 0.89514 7.04839H5.90421C6.30772 4.40988 7.08691 2.0496 8.21859 0.482258ZM22.6058 8.53226H17.2859C17.3833 9.50605 17.439 10.503 17.439 11.5C17.439 12.497 17.3833 13.494 17.2859 14.4677H22.6011C22.8562 13.5171 23 12.5294 23 11.5C23 10.4706 22.8562 9.48286 22.6058 8.53226ZM5.56564 11.5C5.56564 10.503 5.62129 9.50605 5.71869 8.53226H0.398871C0.148417 9.48286 0 10.4706 0 11.5C0 12.5294 0.148417 13.5171 0.398871 14.4677H5.71406C5.62129 13.494 5.56564 12.497 5.56564 11.5ZM7.39766 15.9516C8.07018 20.0925 9.65638 23 11.5023 23C13.3483 23 14.9345 20.0925 15.607 15.9516H7.39766ZM14.786 22.5177C18.0976 21.5347 20.7877 19.1002 22.1141 15.9516H17.1051C16.6969 18.5901 15.9177 20.9504 14.786 22.5177ZM0.89514 15.9516C2.22162 19.1002 4.90704 21.5347 8.22323 22.5177C7.09155 20.9504 6.31236 18.5901 5.90421 15.9516H0.89514Z" fill="#373737"/>
</svg>
