<svg width="16" height="16" viewBox="0 0 16 16" fill="none" xmlns="http://www.w3.org/2000/svg">
<rect x="1" y="1" width="14" height="14" rx="7" fill="black"/>
<path d="M8 0C3.58333 0 0 3.58333 0 8C0 12.4167 3.58333 16 8 16C12.4167 16 16 12.4167 16 8C16 3.58333 12.4167 0 8 0ZM7.75 12.6667C7.58518 12.6667 7.42407 12.6178 7.28702 12.5262C7.14998 12.4347 7.04317 12.3045 6.9801 12.1522C6.91703 12 6.90052 11.8324 6.93268 11.6708C6.96483 11.5091 7.0442 11.3606 7.16074 11.2441C7.27729 11.1275 7.42577 11.0482 7.58742 11.016C7.74908 10.9839 7.91663 11.0004 8.0689 11.0634C8.22117 11.1265 8.35132 11.2333 8.44289 11.3704C8.53446 11.5074 8.58333 11.6685 8.58333 11.8333C8.58333 12.0543 8.49554 12.2663 8.33926 12.4226C8.18298 12.5789 7.97101 12.6667 7.75 12.6667ZM9.14333 8.41667C8.46792 8.87 8.375 9.28542 8.375 9.66667C8.375 9.82138 8.31354 9.96975 8.20415 10.0791C8.09475 10.1885 7.94638 10.25 7.79167 10.25C7.63696 10.25 7.48858 10.1885 7.37919 10.0791C7.26979 9.96975 7.20833 9.82138 7.20833 9.66667C7.20833 8.75375 7.62833 8.02792 8.4925 7.4475C9.29583 6.90833 9.75 6.56667 9.75 5.81542C9.75 5.30458 9.45833 4.91667 8.85458 4.62958C8.7125 4.56208 8.39625 4.49625 8.00708 4.50083C7.51875 4.50708 7.13958 4.62375 6.8475 4.85875C6.29667 5.30208 6.25 5.78458 6.25 5.79167C6.24631 5.86827 6.22756 5.9434 6.19483 6.01276C6.16211 6.08212 6.11604 6.14435 6.05926 6.19591C6.00248 6.24746 5.9361 6.28733 5.86391 6.31323C5.79173 6.33914 5.71515 6.35057 5.63854 6.34687C5.56194 6.34318 5.48681 6.32444 5.41745 6.29171C5.34809 6.25898 5.28586 6.21291 5.2343 6.15613C5.18274 6.09935 5.14288 6.03298 5.11697 5.96079C5.09107 5.8886 5.07964 5.81202 5.08333 5.73542C5.08792 5.63417 5.15833 4.72208 6.11542 3.95208C6.61167 3.55292 7.24292 3.34542 7.99042 3.33625C8.51958 3.33 9.01667 3.41958 9.35375 3.57875C10.3625 4.05583 10.9167 4.85125 10.9167 5.81542C10.9167 7.225 9.97458 7.85792 9.14333 8.41667Z" fill="#FCB400"/>
</svg>
