<svg width="30" height="42" viewBox="0 0 30 42" fill="none" xmlns="http://www.w3.org/2000/svg">
<path d="M15 0C6.71906 0 0 6.04781 0 13.5C0 25.5 15 42 15 42C15 42 30 25.5 30 13.5C30 6.04781 23.2809 0 15 0ZM15 21C13.8133 21 12.6533 20.6481 11.6666 19.9888C10.6799 19.3295 9.91085 18.3925 9.45672 17.2961C9.0026 16.1997 8.88378 14.9933 9.11529 13.8295C9.3468 12.6656 9.91824 11.5965 10.7574 10.7574C11.5965 9.91824 12.6656 9.3468 13.8295 9.11529C14.9933 8.88378 16.1997 9.0026 17.2961 9.45672C18.3925 9.91085 19.3295 10.6799 19.9888 11.6666C20.6481 12.6533 21 13.8133 21 15C20.9983 16.5908 20.3656 18.1159 19.2407 19.2407C18.1159 20.3656 16.5908 20.9983 15 21Z" fill="#0055FF"/>
</svg>
