<svg width="49" height="49" viewBox="0 0 49 49" fill="none" xmlns="http://www.w3.org/2000/svg">
<path d="M8.68012 28.6094C10.3204 20.7489 17.1648 15.1644 24.8583 15.1644C32.552 15.1644 39.3961 20.7489 41.0365 28.6094C41.1721 29.2584 41.8076 29.6746 42.4563 29.5392C43.1053 29.4036 43.5214 28.7681 43.3861 28.1194C41.5203 19.1799 33.7225 12.7644 24.8583 12.7644C15.9941 12.7644 8.19611 19.1799 6.33071 28.1194C6.19535 28.7681 6.61154 29.4036 7.26031 29.5392C7.90907 29.6746 8.54474 29.2584 8.68012 28.6094Z" fill="#212121"/>
<path d="M24.8585 19.9644C20.2193 19.9644 16.4585 23.7252 16.4585 28.3644C16.4585 33.0036 20.2193 36.7644 24.8585 36.7644C29.4977 36.7644 33.2585 33.0036 33.2585 28.3644C33.2585 23.7252 29.4977 19.9644 24.8585 19.9644ZM18.8585 28.3644C18.8585 25.0507 21.5448 22.3644 24.8585 22.3644C28.1722 22.3644 30.8585 25.0507 30.8585 28.3644C30.8585 31.678 28.1722 34.3644 24.8585 34.3644C21.5448 34.3644 18.8585 31.678 18.8585 28.3644Z" fill="#212121"/>
</svg>
